HIERARCHY
ROOT chen_peiyu:Solving:Hips
{
	OFFSET 0.000000 0.000000 0.000000
	CHANNELS 6 Xposition Yposition Zposition Xrotation Yrotation Zrotation
	JOINT chen_peiyu:Solving:Spine
	{
		OFFSET 0.000000 -11.210929 2.546455
		CHANNELS 6 Xposition Yposition Zposition Xrotation Yrotation Zrotation
		JOINT chen_peiyu:Solving:Spine1
		{
			OFFSET 0.000000 -8.581483 1.513147
			CHANNELS 6 Xposition Yposition Zposition Xrotation Yrotation Zrotation
			JOINT chen_peiyu:Solving:Spine2
			{
				OFFSET 0.000000 -8.680708 0.759466
				CHANNELS 6 Xposition Yposition Zposition Xrotation Yrotation Zrotation
				JOINT chen_peiyu:Solving:Spine3
				{
					OFFSET 0.000000 -8.713865 0.000000
					CHANNELS 6 Xposition Yposition Zposition Xrotation Yrotation Zrotation
					JOINT chen_peiyu:Solving:Neck
					{
						OFFSET 0.000000 -11.203541 -1.120352
						CHANNELS 6 Xposition Yposition Zposition Xrotation Yrotation Zrotation
						JOINT chen_peiyu:Solving:Neck1
						{
							OFFSET 0.000000 -7.996979 -0.699643
							CHANNELS 6 Xposition Yposition Zposition Xrotation Yrotation Zrotation
							JOINT chen_peiyu:Solving:Head
							{
								OFFSET 0.000000 -7.905571 -1.393964
								CHANNELS 6 Xposition Yposition Zposition Xrotation Yrotation Zrotation
								JOINT chen_peiyu:Solving:HeadEnd
								{
									OFFSET 0.000000 -9.728081 0.000003
									CHANNELS 6 Xposition Yposition Zposition Xrotation Yrotation Zrotation
									End Site
									{
										OFFSET 0.000000 -9.728081 0.000002
									}
								}
							}
						}
					}
					JOINT chen_peiyu:Solving:RightShoulder
					{
						OFFSET 0.000000 -8.002529 -5.397107
						CHANNELS 6 Xposition Yposition Zposition Xrotation Yrotation Zrotation
						JOINT chen_peiyu:Solving:RightArm
						{
							OFFSET -20.031555 -0.000008 0.000000
							CHANNELS 6 Xposition Yposition Zposition Xrotation Yrotation Zrotation
							JOINT chen_peiyu:Solving:RightForeArm
							{
								OFFSET -29.298958 -0.000008 0.000000
								CHANNELS 6 Xposition Yposition Zposition Xrotation Yrotation Zrotation
								JOINT chen_peiyu:Solving:RightHand
								{
									OFFSET -23.063095 -0.000008 0.000000
									CHANNELS 6 Xposition Yposition Zposition Xrotation Yrotation Zrotation
									JOINT chen_peiyu:Solving:RightHandThumb1
									{
										OFFSET -3.309830 2.925671 -2.461148
										CHANNELS 6 Xposition Yposition Zposition Xrotation Yrotation Zrotation
										End Site
										{
											OFFSET -4.885818 0.000000 -4.930992
										}
									}
									JOINT chen_peiyu:Solving:RightHandMiddle1
									{
										OFFSET -8.826195 -0.000004 0.056578
										CHANNELS 6 Xposition Yposition Zposition Xrotation Yrotation Zrotation
										End Site
										{
											OFFSET -6.941605 -0.000004 0.000000
										}
									}
								}
							}
						}
					}
					JOINT chen_peiyu:Solving:LeftShoulder
					{
						OFFSET 0.000000 -8.002529 -5.397107
						CHANNELS 6 Xposition Yposition Zposition Xrotation Yrotation Zrotation
						JOINT chen_peiyu:Solving:LeftArm
						{
							OFFSET 20.031555 -0.000008 0.000000
							CHANNELS 6 Xposition Yposition Zposition Xrotation Yrotation Zrotation
							JOINT chen_peiyu:Solving:LeftForeArm
							{
								OFFSET 29.298958 -0.000008 0.000000
								CHANNELS 6 Xposition Yposition Zposition Xrotation Yrotation Zrotation
								JOINT chen_peiyu:Solving:LeftHand
								{
									OFFSET 23.063095 -0.000008 0.000000
									CHANNELS 6 Xposition Yposition Zposition Xrotation Yrotation Zrotation
									JOINT chen_peiyu:Solving:LeftHandThumb1
									{
										OFFSET 3.309830 2.925671 -2.461148
										CHANNELS 6 Xposition Yposition Zposition Xrotation Yrotation Zrotation
										End Site
										{
											OFFSET 4.885818 0.000000 -4.930992
										}
									}
									JOINT chen_peiyu:Solving:LeftHandMiddle1
									{
										OFFSET 8.826195 -0.000004 0.056578
										CHANNELS 6 Xposition Yposition Zposition Xrotation Yrotation Zrotation
										End Site
										{
											OFFSET 6.941605 -0.000004 0.000000
										}
									}
								}
							}
						}
					}
				}
			}
		}
	}
	JOINT chen_peiyu:Solving:RightUpLeg
	{
		OFFSET -8.842906 0.000000 0.000000
		CHANNELS 6 Xposition Yposition Zposition Xrotation Yrotation Zrotation
		JOINT chen_peiyu:Solving:RightLeg
		{
			OFFSET 0.000000 42.445980 -0.000006
			CHANNELS 6 Xposition Yposition Zposition Xrotation Yrotation Zrotation
			JOINT chen_peiyu:Solving:RightFoot
			{
				OFFSET 0.000000 37.362904 -0.000006
				CHANNELS 6 Xposition Yposition Zposition Xrotation Yrotation Zrotation
				JOINT chen_peiyu:Solving:RightForeFoot
				{
					OFFSET 0.000000 3.537643 -0.000000
					CHANNELS 6 Xposition Yposition Zposition Xrotation Yrotation Zrotation
					JOINT chen_peiyu:Solving:RightToeBase
					{
						OFFSET 0.000000 0.000000 -13.854536
						CHANNELS 6 Xposition Yposition Zposition Xrotation Yrotation Zrotation
						JOINT chen_peiyu:Solving:RightToeBaseEnd
						{
							OFFSET 0.000000 0.000000 -3.949363
							CHANNELS 6 Xposition Yposition Zposition Xrotation Yrotation Zrotation
							End Site
							{
								OFFSET 0.000000 -3.949364 0.000000
							}
						}
					}
				}
			}
		}
	}
	JOINT chen_peiyu:Solving:LeftUpLeg
	{
		OFFSET 8.842906 0.000000 0.000000
		CHANNELS 6 Xposition Yposition Zposition Xrotation Yrotation Zrotation
		JOINT chen_peiyu:Solving:LeftLeg
		{
			OFFSET 0.000000 42.445980 -0.000006
			CHANNELS 6 Xposition Yposition Zposition Xrotation Yrotation Zrotation
			JOINT chen_peiyu:Solving:LeftFoot
			{
				OFFSET 0.000000 37.362904 -0.000006
				CHANNELS 6 Xposition Yposition Zposition Xrotation Yrotation Zrotation
				JOINT chen_peiyu:Solving:LeftForeFoot
				{
					OFFSET 0.000000 3.537643 -0.000000
					CHANNELS 6 Xposition Yposition Zposition Xrotation Yrotation Zrotation
					JOINT chen_peiyu:Solving:LeftToeBase
					{
						OFFSET 0.000000 0.000000 -13.854536
						CHANNELS 6 Xposition Yposition Zposition Xrotation Yrotation Zrotation
						JOINT chen_peiyu:Solving:LeftToeBaseEnd
						{
							OFFSET 0.000000 0.000000 -4.185185
							CHANNELS 6 Xposition Yposition Zposition Xrotation Yrotation Zrotation
							End Site
							{
								OFFSET 0.000000 -4.185188 0.000000
							}
						}
					}
				}
			}
		}
	}
}
MOTION
Frames: 4
Frame Time: 0.041667
3.595173 -80.165985 -91.748024 81.792110 -36.130495 -4.232054 0.000006 -11.210931 2.546469 16.852267 -0.379120 -9.364149 -0.000006 -8.581491 1.513173 1.600484 0.111218 -1.766639 -0.000001 -8.680717 0.759483 -8.234455 -4.353405 -4.554663 0.000005 -8.713877 0.000015 -9.698218 -1.058368 -1.479522 -0.000003 -11.203533 -1.120349 -3.472041 6.923368 3.570619 0.000015 -7.996994 -0.699646 7.659625 22.190264 -4.436567 -0.000000 -7.905534 -1.393961 16.817305 1.872612 -5.082601 -0.000000 -9.728111 0.000004 0.000001 -0.000002 -0.000002 -0.000005 -8.002506 -5.397106 0.000001 4.926239 1.093236 -20.031553 0.000021 0.000015 -54.243091 28.743301 -76.760214 -29.298958 -0.000011 -0.000014 253.119052 -80.729168 252.908818 -23.063099 -0.000011 -0.000003 -1.506369 2.764171 28.604170 -3.309808 2.925690 -2.461159 0.000008 0.000003 -0.000001 -8.826206 0.000035 0.056571 0.000002 -0.000004 0.000004 -0.000006 -8.002506 -5.397105 -0.000001 -7.871130 -14.104230 20.031567 -0.000023 -0.000008 -6.022662 40.211584 99.945899 29.298969 0.000014 -0.000004 14.161213 14.887809 -3.709192 23.063080 -0.000003 -0.000010 0.053169 -0.168499 17.516741 3.309839 2.925677 -2.461137 0.000002 0.000009 0.000003 8.826218 -0.000004 0.056585 -0.000002 -0.000001 -0.000000 -8.842900 -0.000000 0.000010 -0.212005 18.995748 2.442528 0.000004 42.445976 0.000010 12.149011 0.000003 -0.000000 0.000006 37.362911 -0.000024 16.475764 1.853547 19.431130 -0.000003 3.537642 0.000010 0.000001 0.000000 0.000005 -0.000005 -0.000004 -13.854538 -18.845481 -0.000001 0.000000 0.000002 0.000001 -3.949368 -0.000001 -0.000004 -0.000002 8.842905 0.000018 0.000007 8.596134 -12.913198 -6.260541 0.000003 42.445984 -0.000010 8.605093 -0.000001 -0.000001 -0.000002 37.362923 -0.000024 9.528705 -8.069454 -0.358173 -0.000003 3.537643 -0.000001 -0.000000 0.000004 -0.000001 0.000008 0.000022 -13.854536 0.978960 -0.000000 -0.000001 0.000021 0.000000 -4.185191 0.000001 0.000002 0.000000 
3.576521 -80.147980 -91.745071 81.805155 -36.116418 -4.154052 0.000006 -11.210936 2.546466 16.864330 -0.372037 -9.294438 0.000003 -8.581485 1.513143 1.584936 0.109073 -1.753968 -0.000002 -8.680695 0.759474 -8.175688 -4.226323 -4.398647 -0.000013 -8.713858 0.000025 -9.687944 -1.053232 -1.454120 0.000002 -11.203558 -1.120352 -3.530489 7.100091 3.307840 -0.000003 -7.996966 -0.699649 7.601927 21.877104 -4.372369 0.000012 -7.905566 -1.393972 16.742568 1.850120 -5.006797 0.000000 -9.728096 -0.000001 -0.000003 0.000000 0.000003 -0.000004 -8.002560 -5.397107 -0.000003 4.785461 0.978860 -20.031546 0.000008 0.000005 -54.138719 28.708258 -76.826630 -29.298967 0.000003 -0.000022 251.253262 -81.142197 251.043330 -23.063070 -0.000015 -0.000009 -1.566034 2.873409 28.607544 -3.309802 2.925684 -2.461153 0.000007 -0.000002 -0.000004 -8.826203 0.000016 0.056583 -0.000003 -0.000006 -0.000001 -0.000006 -8.002560 -5.397106 -0.000006 -8.151326 -14.291952 20.031557 -0.000014 -0.000001 -6.221319 40.271861 100.049021 29.298941 0.000003 0.000006 14.120211 14.801985 -3.677254 23.063089 -0.000002 0.000023 0.035176 -0.110861 17.608866 3.309793 2.925668 -2.461145 -0.000003 -0.000005 0.000001 8.826170 -0.000018 0.056552 -0.000001 -0.000001 -0.000002 -8.842895 0.000004 0.000012 -0.142290 19.054773 2.346886 -0.000000 42.445980 -0.000001 12.054583 0.000000 -0.000001 0.000008 37.362888 0.000003 16.512788 1.782539 19.461622 -0.000002 3.537650 0.000004 -0.000001 -0.000001 0.000004 0.000001 0.000012 -13.854532 -18.822704 -0.000005 -0.000003 0.000000 -0.000000 -3.949354 -0.000001 0.000000 -0.000001 8.842908 -0.000010 0.000003 8.553825 -12.897427 -6.336241 -0.000006 42.445972 0.000006 8.650212 -0.000002 0.000000 -0.000000 37.362904 -0.000020 9.482973 -8.149952 -0.363124 -0.000031 3.537644 -0.000005 0.000003 -0.000001 0.000003 -0.000030 -0.000001 -13.854543 1.007299 0.000002 -0.000001 -0.000002 0.000000 -4.185177 0.000001 -0.000004 -0.000002 
3.561198 -80.128021 -91.736893 81.810080 -36.111944 -4.088675 0.000009 -11.210911 2.546462 16.874230 -0.368710 -9.221250 0.000001 -8.581476 1.513146 1.578512 0.105130 -1.731199 0.000007 -8.680717 0.759464 -8.182828 -4.239677 -4.374098 0.000008 -8.713863 0.000005 -9.690829 -1.056484 -1.428579 0.000009 -11.203590 -1.120349 -3.506498 7.080406 3.292422 0.000000 -7.996968 -0.699645 7.556136 21.827365 -4.339321 0.000006 -7.905573 -1.393974 16.698723 1.847989 -4.989570 -0.000009 -9.728096 -0.000005 0.000002 -0.000000 0.000000 -0.000003 -8.002529 -5.397105 -0.000004 4.794948 1.023448 -20.031555 0.000004 -0.000005 -53.998649 28.638404 -76.945032 -29.298956 -0.000016 -0.000008 249.764992 -81.494908 249.558774 -23.063087 0.000007 0.000002 -1.599913 2.939747 28.574035 -3.309820 2.925673 -2.461153 0.000010 0.000003 0.000003 -8.826205 0.000010 0.056578 0.000006 0.000001 -0.000003 -0.000006 -8.002529 -5.397103 -0.000009 -8.162397 -14.295077 20.031570 0.000006 0.000007 -6.172883 40.284698 100.011462 29.298962 -0.000009 0.000009 13.904405 14.821514 -3.623576 23.063107 -0.000001 0.000009 0.039024 -0.122282 17.702792 3.309833 2.925661 -2.461162 0.000006 0.000000 0.000004 8.826224 0.000002 0.056591 -0.000000 -0.000001 -0.000001 -8.842909 0.000022 -0.000010 -0.061494 19.106764 2.259456 -0.000001 42.445972 0.000003 11.955136 -0.000000 -0.000001 0.000006 37.362904 -0.000014 16.488790 1.704195 19.379671 0.000001 3.537643 0.000019 -0.000001 0.000002 0.000002 0.000005 0.000009 -13.854537 -18.604822 -0.000002 0.000002 0.000001 -0.000001 -3.949347 -0.000000 -0.000001 0.000004 8.842915 0.000008 0.000002 8.497094 -13.008696 -6.424781 0.000016 42.445976 -0.000006 8.716326 -0.000002 -0.000001 -0.000015 37.362907 0.000001 9.403225 -8.078837 -0.385796 0.000001 3.537651 0.000001 -0.000000 -0.000001 0.000001 0.000003 0.000013 -13.854524 1.031687 -0.000001 0.000001 0.000004 0.000000 -4.185189 0.000002 0.000001 -0.000005 
3.544159 -80.108780 -91.730980 81.813590 -36.113993 -4.015824 0.000015 -11.210948 2.546449 16.886260 -0.367496 -9.145626 -0.000014 -8.581497 1.513156 1.584874 0.102391 -1.711776 0.000010 -8.680709 0.759458 -8.253776 -4.378921 -4.463079 -0.000002 -8.713875 -0.000000 -9.702470 -1.069673 -1.428952 -0.000000 -11.203514 -1.120320 -3.427679 6.916164 3.537140 -0.000005 -7.996990 -0.699629 7.541831 21.981623 -4.351280 0.000010 -7.905588 -1.393955 16.680910 1.863651 -5.039309 -0.000001 -9.728088 0.000002 0.000000 -0.000000 -0.000003 -0.000003 -8.002533 -5.397089 -0.000002 4.960741 1.182920 -20.031548 0.000017 0.000003 -53.878851 28.460036 -77.079293 -29.298965 -0.000023 0.000006 249.065471 -81.796221 248.868406 -23.063080 0.000002 0.000014 -1.592515 2.941568 28.447712 -3.309792 2.925672 -2.461121 0.000005 -0.000010 -0.000001 -8.826181 -0.000003 0.056602 0.000004 -0.000009 0.000007 -0.000004 -8.002537 -5.397089 -0.000007 -7.929021 -14.138358 20.031588 0.000007 0.000003 -5.934925 40.149297 99.907615 29.298939 -0.000020 0.000006 13.707949 14.851360 -3.577507 23.063095 0.000005 0.000009 0.045712 -0.143156 17.713397 3.309844 2.925681 -2.461166 0.000003 -0.000003 -0.000002 8.826200 0.000009 0.056565 -0.000001 -0.000002 -0.000004 -8.842892 -0.000014 0.000003 0.022535 19.176258 2.160891 -0.000002 42.445988 -0.000009 11.849679 -0.000001 -0.000001 0.000009 37.362923 -0.000027 16.510203 1.636254 19.375244 0.000008 3.537651 -0.000016 0.000001 0.000000 -0.000003 0.000001 -0.000006 -13.854548 -18.681303 -0.000003 -0.000003 0.000000 -0.000001 -3.949370 -0.000000 -0.000006 0.000004 8.842922 -0.000006 -0.000010 8.465874 -13.030685 -6.515039 0.000005 42.445972 -0.000020 8.745393 0.000002 0.000001 -0.000001 37.362907 -0.000005 9.333713 -8.093519 -0.362932 -0.000007 3.537651 0.000005 0.000003 -0.000000 0.000001 -0.000003 -0.000009 -13.854528 1.080571 0.000002 -0.000003 -0.000009 0.000007 -4.185186 -0.000001 0.000001 0.000000 
